<svg width="523" height="155" viewBox="0 0 523 155" fill="none" xmlns="http://www.w3.org/2000/svg">
<path d="M439.565 28.6994H471.179V16.1832V0.425326H426.408V11.5582H459.218V17.168H426.4V45.028H471.171V34.3093H438.011V28.6994H439.565ZM471.186 16.1757V28.692H439.572V28.6994H471.194L471.186 16.1757ZM488.647 0.417908H476.763V45.028H488.647V0.417908Z" fill="#B6F2EB"/>
<path d="M12.4074 143.463C12.4074 140.889 12.3624 138.902 11.1942 137.457C10.071 136.057 8.65563 135.424 6.65619 135.424H1.03979L1.03979 151.501H6.65619C8.65563 151.501 10.071 150.868 11.1942 149.469C12.3624 148.024 12.4074 146.037 12.4074 143.463ZM9.9811 143.463C9.9811 145.856 9.9137 147.346 9.12741 148.227C8.45344 149.017 7.53235 149.333 6.3866 149.333H3.46608L3.46608 137.592H6.3866C7.53235 137.592 8.45344 137.908 9.12741 138.698C9.9137 139.579 9.9811 141.069 9.9811 143.463Z" fill="#B6F2EB"/>
<path d="M26.2241 151.501L26.2241 149.311L18.4285 149.311L18.4285 144.479H25.0783L25.0783 142.311H18.4285L18.4285 137.615L26.2241 137.615L26.2241 135.424L16.0022 135.424L16.0022 151.501L26.2241 151.501Z" fill="#B6F2EB"/>
<path d="M40.7265 140.302C40.7265 137.502 38.727 135.424 35.6043 135.424H29.5386L29.5386 151.501H31.9649L31.9649 145.156H35.6043C38.727 145.156 40.7265 143.101 40.7265 140.302ZM38.3002 140.302C38.3002 141.995 37.1769 142.988 35.4695 142.988H31.9649L31.9649 137.615H35.4695C37.1769 137.615 38.3002 138.586 38.3002 140.302Z" fill="#B6F2EB"/>
<path d="M54.3204 151.501L48.4569 135.424H46.5024L40.6389 151.501H43.2224L44.3233 148.272H50.6361L51.7369 151.501H54.3204ZM49.9621 146.195H45.0422L47.5358 139.06L49.9621 146.195Z" fill="#B6F2EB"/>
<path d="M68.2491 151.501L64.5648 144.388C66.362 143.892 67.7549 142.424 67.7549 140.121C67.7549 137.389 65.8228 135.424 62.79 135.424L56.5895 135.424L56.5895 151.501L59.0157 151.501L59.0157 144.727H62.0486L65.4184 151.501H68.2491ZM65.3286 140.143C65.3286 141.724 64.2278 142.65 62.6102 142.65H59.0157L59.0157 137.615H62.6102C64.2278 137.615 65.3286 138.563 65.3286 140.143Z" fill="#B6F2EB"/>
<path d="M80.799 137.615V135.424L69.5662 135.424V137.615H73.9694L73.9694 151.501H76.3957L76.3957 137.615H80.799Z" fill="#B6F2EB"/>
<path d="M97.6609 151.501L97.6609 135.424H95.2347L90.6517 145.427L85.9788 135.424H83.5526L83.5526 151.501H85.9788L85.9788 140.753L89.7531 148.588H91.5503L95.2347 140.753L95.2347 151.501H97.6609Z" fill="#B6F2EB"/>
<path d="M112.05 151.501V149.311L104.254 149.311L104.254 144.479L110.904 144.479V142.311L104.254 142.311L104.254 137.615L112.05 137.615V135.424L101.828 135.424L101.828 151.501L112.05 151.501Z" fill="#B6F2EB"/>
<path d="M127.406 151.501L127.406 135.424L124.979 135.424L124.979 146.714L117.588 135.424H115.364L115.364 151.501H117.79L117.79 140.189L125.182 151.501H127.406Z" fill="#B6F2EB"/>
<path d="M141.395 137.615V135.424H130.162V137.615H134.565L134.565 151.501H136.991L136.991 137.615H141.395Z" fill="#B6F2EB"/>
<path d="M160.463 143.463C160.463 140.098 160.419 138.495 158.846 136.915C157.813 135.876 156.465 135.289 154.712 135.289C152.96 135.289 151.612 135.876 150.579 136.915C149.006 138.495 148.961 140.098 148.961 143.463C148.961 146.827 149.006 148.43 150.579 150.01C151.612 151.049 152.96 151.636 154.712 151.636C156.465 151.636 157.813 151.049 158.846 150.01C160.419 148.43 160.463 146.827 160.463 143.463ZM158.037 143.463C158.037 146.646 157.902 147.617 157.094 148.453C156.487 149.085 155.678 149.469 154.712 149.469C153.746 149.469 152.938 149.085 152.331 148.453C151.545 147.595 151.387 146.646 151.387 143.463C151.387 140.279 151.545 139.308 152.331 138.45C152.938 137.818 153.746 137.457 154.712 137.457C155.678 137.457 156.487 137.818 157.094 138.45C157.902 139.285 158.037 140.279 158.037 143.463Z" fill="#B6F2EB"/>
<path d="M174.291 137.615V135.424H164.069L164.069 151.501H166.495V144.704H173.145L173.145 142.514H166.495V137.615H174.291Z" fill="#B6F2EB"/>
<path d="M193.975 143.463C193.975 140.889 193.93 138.902 192.762 137.457C191.639 136.057 190.223 135.424 188.224 135.424H182.607L182.607 151.501H188.224C190.223 151.501 191.639 150.868 192.762 149.469C193.93 148.024 193.975 146.037 193.975 143.463ZM191.549 143.463C191.549 145.856 191.481 147.346 190.695 148.227C190.021 149.017 189.1 149.333 187.954 149.333H185.034L185.034 137.592H187.954C189.1 137.592 190.021 137.908 190.695 138.698C191.481 139.579 191.549 141.069 191.549 143.463Z" fill="#B6F2EB"/>
<path d="M207.792 151.501V149.311H199.996V144.479H206.646L206.646 142.311H199.996V137.615H207.792V135.424H197.57L197.57 151.501H207.792Z" fill="#B6F2EB"/>
<path d="M221.103 146.917C221.103 145.517 220.654 144.411 219.8 143.621C219.104 142.988 218.295 142.65 216.835 142.424L214.925 142.13C214.049 141.995 213.577 141.769 213.173 141.408C212.746 141.047 212.589 140.505 212.589 139.918C212.589 138.45 213.6 137.411 215.487 137.411C216.857 137.411 218.026 137.705 219.014 138.653L220.542 137.118C219.171 135.831 217.711 135.289 215.577 135.289C212.252 135.289 210.23 137.186 210.23 139.985C210.23 141.318 210.634 142.356 211.421 143.079C212.117 143.756 213.128 144.163 214.431 144.366L216.318 144.637C217.127 144.75 217.666 144.953 218.071 145.314C218.52 145.698 218.7 146.262 218.7 146.985C218.7 148.565 217.509 149.469 215.397 149.469C213.78 149.469 212.454 149.085 211.286 147.911L209.691 149.514C211.241 151.072 212.948 151.636 215.352 151.636C218.722 151.636 221.103 149.875 221.103 146.917Z" fill="#B6F2EB"/>
<path d="M226.784 151.501L226.784 135.424L224.357 135.424L224.357 151.501H226.784Z" fill="#B6F2EB"/>
<path d="M241.969 145.269L241.969 142.808L236.128 142.808L236.128 144.885H239.543V145.788C239.543 146.827 239.341 147.64 238.757 148.317C238.128 149.062 237.184 149.469 236.128 149.469C235.162 149.469 234.353 149.107 233.747 148.475C232.96 147.617 232.803 146.646 232.803 143.463C232.803 140.279 232.96 139.308 233.747 138.45C234.353 137.818 235.162 137.457 236.128 137.457C237.925 137.457 239.094 138.495 239.498 140.256L241.924 140.256C241.497 137.524 239.498 135.289 236.128 135.289C234.376 135.289 233.028 135.876 231.994 136.915C230.444 138.495 230.377 140.098 230.377 143.463C230.377 146.827 230.444 148.43 231.994 150.01C233.028 151.049 234.376 151.636 236.128 151.636C237.813 151.636 239.341 151.072 240.531 149.807C241.587 148.656 241.969 147.369 241.969 145.269Z" fill="#B6F2EB"/>
<path d="M257.592 151.501V135.424H255.166L255.166 146.714L247.775 135.424H245.55L245.55 151.501H247.977L247.977 140.189L255.368 151.501L257.592 151.501Z" fill="#B6F2EB"/>
<path d="M264.033 152.855L264.033 148.882H261.426L261.426 155L264.033 152.855Z" fill="#B6F2EB"/>
<path d="M275.708 151.501V135.424L273.281 135.424V151.501L275.708 151.501Z" fill="#B6F2EB"/>
<path d="M282.311 151.501V135.424H279.885V151.501H282.311Z" fill="#B6F2EB"/>
<path d="M296.306 137.615V135.424L285.073 135.424V137.615H289.477V151.501L291.903 151.501V137.615H296.306Z" fill="#B6F2EB"/>
<path d="M315.465 145.269V142.808H309.624V144.885H313.039V145.788C313.039 146.827 312.837 147.64 312.252 148.317C311.623 149.062 310.68 149.469 309.624 149.469C308.658 149.469 307.849 149.107 307.243 148.475C306.456 147.617 306.299 146.646 306.299 143.463C306.299 140.279 306.456 139.308 307.243 138.45C307.849 137.818 308.658 137.457 309.624 137.457C311.421 137.457 312.589 138.495 312.994 140.256H315.42C314.993 137.524 312.994 135.289 309.624 135.289C307.872 135.289 306.524 135.876 305.49 136.915C303.94 138.495 303.873 140.098 303.873 143.463C303.873 146.827 303.94 148.43 305.49 150.01C306.524 151.049 307.872 151.636 309.624 151.636C311.309 151.636 312.837 151.072 314.027 149.807C315.083 148.656 315.465 147.369 315.465 145.269Z" fill="#B6F2EB"/>
<path d="M330.279 146.082V135.424H327.853V145.969C327.853 148.114 326.527 149.446 324.528 149.446C322.528 149.446 321.225 148.114 321.225 145.969V135.424H318.799V146.082C318.799 149.401 321.27 151.636 324.528 151.636C327.785 151.636 330.279 149.401 330.279 146.082Z" fill="#B6F2EB"/>
<path d="M351.437 135.424H348.876L346.09 146.917L342.878 135.424H340.923L337.711 146.917L334.925 135.424H332.364L336.543 151.501H338.654L341.889 140.234L345.147 151.501H347.259L351.437 135.424Z" fill="#B6F2EB"/>
<path d="M365.328 151.501L359.465 135.424H357.51L351.647 151.501H354.23L355.331 148.272L361.644 148.272L362.745 151.501H365.328ZM360.97 146.195L356.05 146.195L358.544 139.06L360.97 146.195Z" fill="#B6F2EB"/>
<path d="M378.943 151.501V135.424H376.516V142.288L370.024 142.288V135.424H367.597V151.501H370.024V144.479L376.516 144.479V151.501H378.943Z" fill="#B6F2EB"/>
<path d="M394.902 151.501L389.039 135.424H387.084L381.221 151.501H383.804L384.905 148.272L391.218 148.272L392.319 151.501H394.902ZM390.544 146.195L385.624 146.195L388.118 139.06L390.544 146.195Z" fill="#B6F2EB"/>
<path d="M405.65 137.615V135.424H394.418V137.615H398.821V151.501H401.247V137.615H405.65Z" fill="#B6F2EB"/>
<path d="M410.83 151.501V135.424H408.404V151.501H410.83Z" fill="#B6F2EB"/>
<path d="M441.915 74.1011L435.492 56.4401H432.799L426.4 74.1011H429.983L431.045 70.9757H437.295L438.333 74.1011H441.915ZM436.381 68.0735H432.008L434.232 61.6491L436.381 68.0735Z" fill="#B6F2EB"/>
<path d="M457.547 74.1011V56.4401H454.113V67.2549L447.146 56.4401H444.082V74.1011H447.516V63.2614L454.483 74.1011H457.547Z" fill="#B6F2EB"/>
<path d="M475.111 74.1011V56.4401H471.677V67.2549L464.71 56.4401H461.646V74.1011H465.081V63.2614L472.048 74.1011H475.111Z" fill="#B6F2EB"/>
<path d="M491.885 68.0487V56.4401H488.475V67.9247C488.475 69.9587 487.265 71.1741 485.412 71.1741C483.559 71.1741 482.373 69.9587 482.373 67.9247V56.4401H478.939V68.0487C478.939 71.7942 481.805 74.2499 485.412 74.2499C489.019 74.2499 491.885 71.7942 491.885 68.0487Z" fill="#B6F2EB"/>
<path d="M509.302 74.1011L502.878 56.4401H500.185L493.786 74.1011H497.369L498.431 70.9757H504.682L505.719 74.1011H509.302ZM503.768 68.0735H499.395L501.618 61.6491L503.768 68.0735Z" fill="#B6F2EB"/>
<path d="M522.882 74.1011V71.0253H514.902V56.4401H511.468V74.1011H522.882Z" fill="#B6F2EB"/>
<path d="M441.1 89.5639C441.1 86.6369 441.075 84.8262 439.988 83.3131C438.728 81.5519 437.073 80.7334 434.677 80.7334H428.327V98.3944H434.677C437.073 98.3944 438.728 97.5758 439.988 95.8147C441.075 94.3016 441.1 92.4908 441.1 89.5639ZM437.666 89.5639C437.666 92.342 437.592 93.4582 436.95 94.2272C436.381 94.9465 435.541 95.3186 434.38 95.3186H431.761V83.8092H434.38C435.541 83.8092 436.381 84.1812 436.95 84.9006C437.592 85.6695 437.666 86.7857 437.666 89.5639Z" fill="#B6F2EB"/>
<path d="M456.2 98.3944V95.3186H448.047V91.0274H454.989V87.9516H448.047V83.8092H456.2V80.7334H444.613V98.3944H456.2Z" fill="#B6F2EB"/>
<path d="M470.936 93.1854C470.936 91.5979 470.516 90.3328 469.577 89.4647C468.811 88.7205 467.823 88.2988 466.217 88.0756L464.117 87.7531C463.376 87.6539 462.857 87.4059 462.511 87.0834C462.141 86.7361 462.017 86.2896 462.017 85.8184C462.017 84.6029 462.882 83.5859 464.71 83.5859C465.871 83.5859 467.23 83.7348 468.317 84.8014L470.491 82.6434C468.984 81.1799 467.23 80.5846 464.809 80.5846C461.004 80.5846 458.682 82.7922 458.682 85.9424C458.682 87.4307 459.102 88.5965 459.942 89.4151C460.733 90.184 461.795 90.6553 463.351 90.8785L465.451 91.201C466.341 91.325 466.687 91.4738 467.033 91.7963C467.403 92.1684 467.576 92.6645 467.576 93.2598C467.576 94.6737 466.489 95.4674 464.439 95.4674C462.833 95.4674 461.326 95.0953 460.214 93.9791L457.99 96.2116C459.72 97.9727 461.746 98.5432 464.414 98.5432C468.12 98.5432 470.936 96.6084 470.936 93.1854Z" fill="#B6F2EB"/>
<path d="M477.602 98.3944V80.7334H474.168V98.3944H477.602Z" fill="#B6F2EB"/>
<path d="M494.222 91.1514V88.5717H487.576V91.4738H490.812V92.1188C490.812 93.0365 490.59 93.8303 490.022 94.4752C489.478 95.0953 488.638 95.4674 487.576 95.4674C486.637 95.4674 485.896 95.1201 485.377 94.5496C484.735 93.8055 484.537 92.9373 484.537 89.5639C484.537 86.1904 484.735 85.3471 485.377 84.6029C485.896 84.0324 486.637 83.6603 487.576 83.6603C489.33 83.6603 490.343 84.5533 490.738 86.24H494.197C493.728 83.2635 491.677 80.5846 487.576 80.5846C485.575 80.5846 484.092 81.2543 482.882 82.4449C481.128 84.206 481.103 86.1904 481.103 89.5639C481.103 92.9373 481.128 94.9217 482.882 96.6828C484.092 97.8735 485.575 98.5432 487.576 98.5432C489.453 98.5432 491.084 98.0719 492.542 96.534C493.826 95.1946 494.222 93.7063 494.222 91.1514Z" fill="#B6F2EB"/>
<path d="M511.205 98.3944V80.7334H507.771V91.5483L500.804 80.7334H497.74V98.3944H501.174V87.5547L508.141 98.3944H511.205Z" fill="#B6F2EB"/>
<path d="M439.914 108.102V105.027H428.327V122.688H431.761V115.519H438.704V112.443H431.761V108.102H439.914Z" fill="#B6F2EB"/>
<path d="M454.487 122.688V119.612H446.334V115.321H453.276V112.245H446.334V108.102H454.487V105.027H442.9V122.688H454.487Z" fill="#B6F2EB"/>
<path d="M469.223 117.479C469.223 115.891 468.803 114.626 467.864 113.758C467.098 113.014 466.11 112.592 464.504 112.369L462.404 112.046C461.663 111.947 461.144 111.699 460.798 111.377C460.428 111.029 460.304 110.583 460.304 110.112C460.304 108.896 461.169 107.879 462.997 107.879C464.158 107.879 465.517 108.028 466.604 109.095L468.778 106.937C467.271 105.473 465.517 104.878 463.096 104.878C459.291 104.878 456.969 107.085 456.969 110.236C456.969 111.724 457.389 112.89 458.229 113.708C459.02 114.477 460.082 114.949 461.638 115.172L463.738 115.494C464.628 115.618 464.974 115.767 465.32 116.09C465.69 116.462 465.863 116.958 465.863 117.553C465.863 118.967 464.776 119.761 462.726 119.761C461.12 119.761 459.613 119.389 458.501 118.272L456.277 120.505C458.007 122.266 460.033 122.837 462.701 122.837C466.407 122.837 469.223 120.902 469.223 117.479Z" fill="#B6F2EB"/>
<path d="M483.771 108.102V105.027H471.146V108.102H475.741V122.688H479.175V108.102H483.771Z" fill="#B6F2EB"/>
<path d="M413.951 64.7389H389.052V90.675H413.951V64.7389Z" fill="#FE86A0"/>
<path d="M413.951 64.7389H389.052V90.675H413.951V64.7389Z" fill="#6DE2D5"/>
<path d="M414.17 57.4197H388.541V25.2976H355.988V0.0032959H414.17V57.4197Z" fill="#585858"/>
<path d="M414.17 57.4197H388.541V25.2976H355.988V0.0032959H414.17V57.4197Z" fill="#6DE2D5"/>
<path d="M64.8919 57.9658V25.3843H57.8976V64.7417H90.3351V109.796C90.3351 116.791 90.3351 122.488 90.3351 122.488H0V97.104H64.8919V90.1259H32.4375V0H90.3182V57.9658H77.5966C70.6023 57.9658 64.8919 57.9658 64.8919 57.9658Z" fill="#6DE2D5"/>
<path d="M25.2632 0H0V90.3351H25.2632V0Z" fill="#6DE2D5"/>
<path d="M155.415 0V122.488H129.847V57.6673H122.802V122.488H97.2335V0H122.802V32.3179H129.847V0H155.415Z" fill="#6DE2D5"/>
<path d="M219.721 0V122.488H162.338V45.0439C162.338 38.0479 167.999 32.35 174.95 32.35H187.563V97.1006H194.497V25.3878H162.305V0H219.721Z" fill="#6DE2D5"/>
<path d="M414.166 97.042V122.485H355.984V44.8717C355.984 37.8605 361.724 32.1501 368.772 32.1501H381.56V97.042H414.166Z" fill="#6DE2D5"/>
<path d="M284.775 12.724V90.3351H259.199V25.448H252.168V90.3351H226.593V0H271.987C279.035 0 284.775 5.71144 284.775 12.724Z" fill="#6DE2D5"/>
<path d="M349.083 0.0842938V122.488H226.594V97.1006H323.695V90.1215H304.022C297.026 90.1215 291.328 84.4235 291.328 77.4276V0H316.716V64.7337H323.695V0.0842938H349.083Z" fill="#6DE2D5"/>
</svg>
