<svg width="523" height="155" viewBox="0 0 523 155" fill="none" xmlns="http://www.w3.org/2000/svg">
<path d="M439.565 28.6995H471.179V16.1832V0.425387H426.408V11.5583H459.218V17.1681H426.4V45.0281H471.172V34.3093H438.012V28.6995H439.565ZM471.187 16.1758V28.6921H439.572V28.6995H471.194L471.187 16.1758ZM488.647 0.417969H476.764V45.0281H488.647V0.417969Z" fill="#B6F2EB"/>
<path d="M12.4066 143.463C12.4066 140.889 12.3617 138.902 11.1935 137.457C10.0702 136.057 8.6549 135.425 6.65546 135.425H1.03906L1.03906 151.501H6.65546C8.6549 151.501 10.0702 150.869 11.1935 149.469C12.3617 148.024 12.4066 146.037 12.4066 143.463ZM9.98037 143.463C9.98037 145.856 9.91297 147.346 9.12667 148.227C8.45271 149.017 7.53162 149.333 6.38587 149.333H3.46535L3.46535 137.592H6.38587C7.53162 137.592 8.45271 137.908 9.12667 138.698C9.91297 139.579 9.98037 141.069 9.98037 143.463Z" fill="#B6F2EB"/>
<path d="M26.2233 151.501L26.2233 149.311L18.4278 149.311L18.4278 144.479H25.0776L25.0776 142.311H18.4278L18.4278 137.615L26.2233 137.615L26.2233 135.425L16.0015 135.425L16.0015 151.501L26.2233 151.501Z" fill="#B6F2EB"/>
<path d="M40.7257 140.302C40.7257 137.502 38.7263 135.425 35.6036 135.425H29.5379L29.5379 151.501H31.9642L31.9642 145.156H35.6036C38.7263 145.156 40.7257 143.101 40.7257 140.302ZM38.2995 140.302C38.2995 141.995 37.1762 142.988 35.4688 142.988H31.9642L31.9642 137.615H35.4688C37.1762 137.615 38.2995 138.586 38.2995 140.302Z" fill="#B6F2EB"/>
<path d="M54.3197 151.501L48.4562 135.425H46.5017L40.6382 151.501H43.2217L44.3225 148.272H50.6354L51.7362 151.501H54.3197ZM49.9614 146.195H45.0414L47.5351 139.06L49.9614 146.195Z" fill="#B6F2EB"/>
<path d="M68.2484 151.501L64.564 144.388C66.3613 143.892 67.7541 142.424 67.7541 140.121C67.7541 137.389 65.8221 135.425 62.7892 135.425L56.5887 135.425L56.5887 151.501L59.015 151.501L59.015 144.727H62.0479L65.4177 151.501H68.2484ZM65.3279 140.144C65.3279 141.724 64.227 142.65 62.6095 142.65H59.015L59.015 137.615H62.6095C64.227 137.615 65.3279 138.563 65.3279 140.144Z" fill="#B6F2EB"/>
<path d="M80.7982 137.615V135.425L69.5654 135.425V137.615H73.9687L73.9687 151.501H76.395L76.395 137.615H80.7982Z" fill="#B6F2EB"/>
<path d="M97.6602 151.501L97.6602 135.425H95.2339L90.651 145.427L85.9781 135.425H83.5518L83.5518 151.501H85.9781L85.9781 140.753L89.7523 148.588H91.5496L95.2339 140.753L95.2339 151.501H97.6602Z" fill="#B6F2EB"/>
<path d="M112.049 151.501V149.311L104.253 149.311L104.253 144.479L110.903 144.479V142.311L104.253 142.311L104.253 137.615L112.049 137.615V135.425L101.827 135.425L101.827 151.501L112.049 151.501Z" fill="#B6F2EB"/>
<path d="M127.405 151.501L127.405 135.425L124.979 135.425L124.979 146.714L117.588 135.425H115.363L115.363 151.501H117.79L117.79 140.189L125.181 151.501H127.405Z" fill="#B6F2EB"/>
<path d="M141.394 137.615V135.425H130.161V137.615H134.564L134.564 151.501H136.991L136.991 137.615H141.394Z" fill="#B6F2EB"/>
<path d="M160.463 143.463C160.463 140.098 160.418 138.495 158.845 136.915C157.812 135.876 156.464 135.289 154.712 135.289C152.959 135.289 151.611 135.876 150.578 136.915C149.005 138.495 148.96 140.098 148.96 143.463C148.96 146.827 149.005 148.43 150.578 150.011C151.611 151.049 152.959 151.636 154.712 151.636C156.464 151.636 157.812 151.049 158.845 150.011C160.418 148.43 160.463 146.827 160.463 143.463ZM158.036 143.463C158.036 146.646 157.902 147.617 157.093 148.453C156.486 149.085 155.678 149.469 154.712 149.469C153.746 149.469 152.937 149.085 152.33 148.453C151.544 147.595 151.387 146.646 151.387 143.463C151.387 140.279 151.544 139.308 152.33 138.45C152.937 137.818 153.746 137.457 154.712 137.457C155.678 137.457 156.486 137.818 157.093 138.45C157.902 139.286 158.036 140.279 158.036 143.463Z" fill="#B6F2EB"/>
<path d="M174.29 137.615V135.425H164.068L164.068 151.501H166.494V144.704H173.144L173.144 142.514H166.494V137.615H174.29Z" fill="#B6F2EB"/>
<path d="M193.974 143.463C193.974 140.889 193.929 138.902 192.761 137.457C191.638 136.057 190.222 135.425 188.223 135.425H182.607L182.607 151.501H188.223C190.222 151.501 191.638 150.869 192.761 149.469C193.929 148.024 193.974 146.037 193.974 143.463ZM191.548 143.463C191.548 145.856 191.481 147.346 190.694 148.227C190.02 149.017 189.099 149.333 187.953 149.333H185.033L185.033 137.592H187.953C189.099 137.592 190.02 137.908 190.694 138.698C191.481 139.579 191.548 141.069 191.548 143.463Z" fill="#B6F2EB"/>
<path d="M207.791 151.501V149.311H199.995V144.479H206.645L206.645 142.311H199.995V137.615H207.791V135.425H197.569L197.569 151.501H207.791Z" fill="#B6F2EB"/>
<path d="M221.103 146.917C221.103 145.517 220.653 144.411 219.8 143.621C219.103 142.988 218.294 142.65 216.834 142.424L214.925 142.13C214.048 141.995 213.577 141.769 213.172 141.408C212.745 141.047 212.588 140.505 212.588 139.918C212.588 138.45 213.599 137.411 215.486 137.411C216.857 137.411 218.025 137.705 219.013 138.653L220.541 137.118C219.171 135.831 217.71 135.289 215.576 135.289C212.251 135.289 210.229 137.186 210.229 139.985C210.229 141.318 210.634 142.356 211.42 143.079C212.116 143.756 213.127 144.163 214.43 144.366L216.317 144.637C217.126 144.75 217.665 144.953 218.07 145.314C218.519 145.698 218.699 146.262 218.699 146.985C218.699 148.565 217.508 149.469 215.396 149.469C213.779 149.469 212.453 149.085 211.285 147.911L209.69 149.514C211.24 151.072 212.948 151.636 215.351 151.636C218.721 151.636 221.103 149.875 221.103 146.917Z" fill="#B6F2EB"/>
<path d="M226.783 151.501L226.783 135.425L224.357 135.425L224.357 151.501H226.783Z" fill="#B6F2EB"/>
<path d="M241.968 145.269L241.968 142.808L236.127 142.808L236.127 144.885H239.542V145.788C239.542 146.827 239.34 147.64 238.756 148.317C238.127 149.062 237.183 149.469 236.127 149.469C235.161 149.469 234.353 149.107 233.746 148.475C232.96 147.617 232.802 146.646 232.802 143.463C232.802 140.279 232.96 139.308 233.746 138.45C234.353 137.818 235.161 137.457 236.127 137.457C237.925 137.457 239.093 138.495 239.497 140.256L241.923 140.256C241.497 137.524 239.497 135.289 236.127 135.289C234.375 135.289 233.027 135.876 231.994 136.915C230.444 138.495 230.376 140.098 230.376 143.463C230.376 146.827 230.444 148.43 231.994 150.011C233.027 151.049 234.375 151.636 236.127 151.636C237.812 151.636 239.34 151.072 240.531 149.807C241.587 148.656 241.968 147.369 241.968 145.269Z" fill="#B6F2EB"/>
<path d="M257.591 151.501V135.425H255.165L255.165 146.714L247.774 135.425H245.55L245.55 151.501H247.976L247.976 140.189L255.367 151.501L257.591 151.501Z" fill="#B6F2EB"/>
<path d="M264.032 152.856L264.032 148.882H261.426L261.426 155.001L264.032 152.856Z" fill="#B6F2EB"/>
<path d="M275.707 151.501V135.425L273.281 135.425V151.501L275.707 151.501Z" fill="#B6F2EB"/>
<path d="M282.311 151.501V135.425H279.884V151.501H282.311Z" fill="#B6F2EB"/>
<path d="M296.306 137.615V135.425L285.073 135.425V137.615H289.476V151.501L291.902 151.501V137.615H296.306Z" fill="#B6F2EB"/>
<path d="M315.464 145.269V142.808H309.623V144.885H313.038V145.788C313.038 146.827 312.836 147.64 312.252 148.317C311.623 149.062 310.679 149.469 309.623 149.469C308.657 149.469 307.848 149.107 307.242 148.475C306.456 147.617 306.298 146.646 306.298 143.463C306.298 140.279 306.456 139.308 307.242 138.45C307.848 137.818 308.657 137.457 309.623 137.457C311.42 137.457 312.589 138.495 312.993 140.256H315.419C314.992 137.524 312.993 135.289 309.623 135.289C307.871 135.289 306.523 135.876 305.49 136.915C303.939 138.495 303.872 140.098 303.872 143.463C303.872 146.827 303.939 148.43 305.49 150.011C306.523 151.049 307.871 151.636 309.623 151.636C311.308 151.636 312.836 151.072 314.026 149.807C315.082 148.656 315.464 147.369 315.464 145.269Z" fill="#B6F2EB"/>
<path d="M330.278 146.082V135.425H327.852V145.969C327.852 148.114 326.527 149.446 324.527 149.446C322.528 149.446 321.225 148.114 321.225 145.969V135.425H318.798V146.082C318.798 149.401 321.27 151.636 324.527 151.636C327.785 151.636 330.278 149.401 330.278 146.082Z" fill="#B6F2EB"/>
<path d="M351.437 135.425H348.875L346.09 146.917L342.877 135.425H340.923L337.71 146.917L334.924 135.425H332.363L336.542 151.501H338.654L341.889 140.234L345.146 151.501H347.258L351.437 135.425Z" fill="#B6F2EB"/>
<path d="M365.328 151.501L359.464 135.425H357.51L351.646 151.501H354.23L355.33 148.272L361.643 148.272L362.744 151.501H365.328ZM360.969 146.195L356.049 146.195L358.543 139.06L360.969 146.195Z" fill="#B6F2EB"/>
<path d="M378.942 151.501V135.425H376.516V142.289L370.023 142.289V135.425H367.597V151.501H370.023V144.479L376.516 144.479V151.501H378.942Z" fill="#B6F2EB"/>
<path d="M394.902 151.501L389.038 135.425H387.083L381.22 151.501H383.803L384.904 148.272L391.217 148.272L392.318 151.501H394.902ZM390.543 146.195L385.623 146.195L388.117 139.06L390.543 146.195Z" fill="#B6F2EB"/>
<path d="M405.65 137.615V135.425H394.417V137.615H398.82V151.501H401.246V137.615H405.65Z" fill="#B6F2EB"/>
<path d="M410.83 151.501V135.425H408.403V151.501H410.83Z" fill="#B6F2EB"/>
<path d="M441.916 74.1009L435.492 56.4399H432.799L426.4 74.1009H429.983L431.045 70.9755H437.296L438.333 74.1009H441.916ZM436.382 68.0734H432.009L434.232 61.6489L436.382 68.0734Z" fill="#B6F2EB"/>
<path d="M457.547 74.1009V56.4399H454.113V67.2548L447.146 56.4399H444.082V74.1009H447.516V63.2613L454.483 74.1009H457.547Z" fill="#B6F2EB"/>
<path d="M475.111 74.1009V56.4399H471.677V67.2548L464.71 56.4399H461.647V74.1009H465.081V63.2613L472.048 74.1009H475.111Z" fill="#B6F2EB"/>
<path d="M491.885 68.0486V56.4399H488.476V67.9245C488.476 69.9585 487.265 71.174 485.412 71.174C483.559 71.174 482.373 69.9585 482.373 67.9245V56.4399H478.939V68.0486C478.939 71.7941 481.805 74.2498 485.412 74.2498C489.019 74.2498 491.885 71.7941 491.885 68.0486Z" fill="#B6F2EB"/>
<path d="M509.302 74.1009L502.878 56.4399H500.186L493.787 74.1009H497.369L498.431 70.9755H504.682L505.72 74.1009H509.302ZM503.768 68.0734H499.395L501.618 61.6489L503.768 68.0734Z" fill="#B6F2EB"/>
<path d="M522.883 74.1009V71.0251H514.903V56.4399H511.469V74.1009H522.883Z" fill="#B6F2EB"/>
<path d="M441.1 89.5638C441.1 86.6368 441.076 84.826 439.989 83.313C438.729 81.5518 437.073 80.7333 434.677 80.7333H428.327V98.3942H434.677C437.073 98.3942 438.729 97.5757 439.989 95.8146C441.076 94.3015 441.1 92.4907 441.1 89.5638ZM437.666 89.5638C437.666 92.3419 437.592 93.4581 436.95 94.2271C436.382 94.9464 435.542 95.3185 434.38 95.3185H431.762V83.8091H434.38C435.542 83.8091 436.382 84.1811 436.95 84.9005C437.592 85.6694 437.666 86.7856 437.666 89.5638Z" fill="#B6F2EB"/>
<path d="M456.2 98.3942V95.3185H448.047V91.0272H454.99V87.9514H448.047V83.8091H456.2V80.7333H444.613V98.3942H456.2Z" fill="#B6F2EB"/>
<path d="M470.936 93.1852C470.936 91.5977 470.516 90.3327 469.578 89.4645C468.812 88.7204 467.823 88.2987 466.218 88.0755L464.118 87.753C463.376 87.6538 462.858 87.4057 462.512 87.0833C462.141 86.736 462.018 86.2895 462.018 85.8182C462.018 84.6028 462.882 83.5858 464.711 83.5858C465.872 83.5858 467.231 83.7346 468.318 84.8012L470.492 82.6432C468.985 81.1798 467.231 80.5844 464.809 80.5844C461.005 80.5844 458.682 82.7921 458.682 85.9423C458.682 87.4305 459.102 88.5964 459.942 89.4149C460.733 90.1839 461.795 90.6552 463.352 90.8784L465.452 91.2009C466.341 91.3249 466.687 91.4737 467.033 91.7962C467.403 92.1683 467.576 92.6644 467.576 93.2597C467.576 94.6735 466.489 95.4673 464.439 95.4673C462.833 95.4673 461.326 95.0952 460.214 93.979L457.991 96.2114C459.72 97.9726 461.746 98.5431 464.414 98.5431C468.12 98.5431 470.936 96.6083 470.936 93.1852Z" fill="#B6F2EB"/>
<path d="M477.603 98.3942V80.7333H474.168V98.3942H477.603Z" fill="#B6F2EB"/>
<path d="M494.222 91.1513V88.5716H487.576V91.4737H490.813V92.1186C490.813 93.0364 490.59 93.8302 490.022 94.4751C489.478 95.0952 488.638 95.4673 487.576 95.4673C486.637 95.4673 485.896 95.12 485.377 94.5495C484.735 93.8054 484.537 92.9372 484.537 89.5638C484.537 86.1903 484.735 85.3469 485.377 84.6028C485.896 84.0323 486.637 83.6602 487.576 83.6602C489.33 83.6602 490.343 84.5532 490.738 86.2399H494.197C493.728 83.2633 491.677 80.5844 487.576 80.5844C485.575 80.5844 484.093 81.2542 482.882 82.4448C481.128 84.2059 481.103 86.1903 481.103 89.5638C481.103 92.9372 481.128 94.9216 482.882 96.6827C484.093 97.8734 485.575 98.5431 487.576 98.5431C489.454 98.5431 491.084 98.0718 492.542 96.5339C493.827 95.1944 494.222 93.7062 494.222 91.1513Z" fill="#B6F2EB"/>
<path d="M511.205 98.3942V80.7333H507.771V91.5481L500.804 80.7333H497.74V98.3942H501.175V87.5546L508.142 98.3942H511.205Z" fill="#B6F2EB"/>
<path d="M439.915 108.102V105.027H428.327V122.688H431.762V115.519H438.704V112.443H431.762V108.102H439.915Z" fill="#B6F2EB"/>
<path d="M454.487 122.688V119.612H446.334V115.321H453.277V112.245H446.334V108.102H454.487V105.027H442.9V122.688H454.487Z" fill="#B6F2EB"/>
<path d="M469.223 117.479C469.223 115.891 468.803 114.626 467.865 113.758C467.099 113.014 466.11 112.592 464.505 112.369L462.405 112.046C461.663 111.947 461.145 111.699 460.799 111.377C460.428 111.029 460.305 110.583 460.305 110.112C460.305 108.896 461.169 107.879 462.998 107.879C464.159 107.879 465.518 108.028 466.605 109.095L468.779 106.937C467.272 105.473 465.518 104.878 463.096 104.878C459.292 104.878 456.969 107.085 456.969 110.236C456.969 111.724 457.389 112.89 458.229 113.708C459.02 114.477 460.082 114.948 461.639 115.172L463.739 115.494C464.628 115.618 464.974 115.767 465.32 116.09C465.69 116.462 465.863 116.958 465.863 117.553C465.863 118.967 464.776 119.761 462.726 119.761C461.12 119.761 459.613 119.389 458.501 118.272L456.278 120.505C458.007 122.266 460.033 122.836 462.701 122.836C466.407 122.836 469.223 120.902 469.223 117.479Z" fill="#B6F2EB"/>
<path d="M483.771 108.102V105.027H471.146V108.102H475.741V122.688H479.175V108.102H483.771Z" fill="#B6F2EB"/>
<path d="M413.951 64.739H389.053V90.6751H413.951V64.739Z" fill="#FE86A0"/>
<path d="M413.951 64.739H389.053V90.6751H413.951V64.739Z" fill="#6DE2D5"/>
<path d="M414.17 57.4196H388.541V25.2975H355.988V0.00317383H414.17V57.4196Z" fill="#585858"/>
<path d="M414.17 57.4196H388.541V25.2975H355.988V0.00317383H414.17V57.4196Z" fill="#6DE2D5"/>
<path d="M64.8919 57.9658V25.3843H57.8976V64.7417H90.3351V109.796C90.3351 116.791 90.3351 122.488 90.3351 122.488H0V97.104H64.8919V90.1259H32.4375V0H90.3182V57.9658H77.5966C70.6023 57.9658 64.8919 57.9658 64.8919 57.9658Z" fill="#6DE2D5"/>
<path d="M25.2632 0H0V90.3351H25.2632V0Z" fill="#6DE2D5"/>
<path d="M155.416 0V122.488H129.848V57.6673H122.803V122.488H97.2344V0H122.803V32.3179H129.848V0H155.416Z" fill="#6DE2D5"/>
<path d="M219.721 0V122.488H162.338V45.0439C162.338 38.0479 167.999 32.35 174.95 32.35H187.563V97.1006H194.497V25.3878H162.305V0H219.721Z" fill="#6DE2D5"/>
<path d="M414.166 97.0421V122.485H355.984V44.8718C355.984 37.8605 361.724 32.1501 368.772 32.1501H381.56V97.0421H414.166Z" fill="#6DE2D5"/>
<path d="M284.776 12.724V90.3351H259.2V25.448H252.169V90.3351H226.594V0H271.988C279.036 0 284.776 5.71144 284.776 12.724Z" fill="#6DE2D5"/>
<path d="M349.082 0.0842938V122.488H226.594V97.1006H323.694V90.1215H304.021C297.025 90.1215 291.327 84.4235 291.327 77.4276V0H316.715V64.7337H323.694V0.0842938H349.082Z" fill="#6DE2D5"/>
</svg>
